<mxfile host="drawio-plugin" modified="2022-06-23T10:56:12.514Z" agent="5.0 (Windows NT 6.2; Win64; x64) AppleWebKit/537.36 (KHTML, like Gecko) Chrome/97.0.4692.45 Safari/537.36" etag="FzfxmYS1jQoMFh411UKO" version="15.5.4" type="embed"><diagram id="C5RBs43oDa-KdzZeNtuy" name="Page-1"><mxGraphModel dx="800" dy="622" grid="1" gridSize="10" guides="1" tooltips="1" connect="1" arrows="1" fold="1" page="1" pageScale="1" pageWidth="827" pageHeight="1169" math="0" shadow="0"><root><mxCell id="WIyWlLk6GJQsqaUBKTNV-0"/><mxCell id="WIyWlLk6GJQsqaUBKTNV-1" parent="WIyWlLk6GJQsqaUBKTNV-0"/><mxCell id="WIyWlLk6GJQsqaUBKTNV-6" value="&lt;div&gt;Admin Action&lt;/div&gt;" style="rhombus;whiteSpace=wrap;html=1;shadow=0;fontFamily=Helvetica;fontSize=12;align=center;strokeWidth=1;spacing=6;spacingTop=-4;" parent="WIyWlLk6GJQsqaUBKTNV-1" vertex="1"><mxGeometry x="335" y="500" width="100" height="80" as="geometry"/></mxCell><mxCell id="z_KAuhuDqd6TNWYJx3mP-3" value="" style="edgeStyle=orthogonalEdgeStyle;rounded=0;orthogonalLoop=1;jettySize=auto;html=1;entryX=0.5;entryY=0;entryDx=0;entryDy=0;startArrow=none;" parent="WIyWlLk6GJQsqaUBKTNV-1" source="1" target="WIyWlLk6GJQsqaUBKTNV-6" edge="1"><mxGeometry relative="1" as="geometry"><mxPoint x="440" y="170" as="targetPoint"/></mxGeometry></mxCell><mxCell id="us1KMaRaIffKch248EVU-10" value="User Initiate the withdrawal request&amp;nbsp; make entry in withdraw table with pending status" style="whiteSpace=wrap;html=1;rounded=1;shadow=0;strokeWidth=1;glass=0;" parent="WIyWlLk6GJQsqaUBKTNV-1" vertex="1"><mxGeometry x="292.5" y="40" width="185" height="100" as="geometry"/></mxCell><mxCell id="us1KMaRaIffKch248EVU-14" value="add new entry in blkmkt_user_balanace_history" style="whiteSpace=wrap;html=1;rounded=1;shadow=0;strokeWidth=1;glass=0;" parent="WIyWlLk6GJQsqaUBKTNV-1" vertex="1"><mxGeometry x="190" y="620" width="170" height="110" as="geometry"/></mxCell><mxCell id="z_KAuhuDqd6TNWYJx3mP-7" value="" style="endArrow=classic;html=1;rounded=0;exitX=0;exitY=0.5;exitDx=0;exitDy=0;" parent="WIyWlLk6GJQsqaUBKTNV-1" source="WIyWlLk6GJQsqaUBKTNV-6" target="us1KMaRaIffKch248EVU-14" edge="1"><mxGeometry width="50" height="50" relative="1" as="geometry"><mxPoint x="290" y="600" as="sourcePoint"/><mxPoint x="340" y="550" as="targetPoint"/><Array as="points"><mxPoint x="275" y="540"/></Array></mxGeometry></mxCell><mxCell id="z_KAuhuDqd6TNWYJx3mP-8" value="Approve" style="text;html=1;strokeColor=none;fillColor=none;align=center;verticalAlign=middle;whiteSpace=wrap;rounded=0;" parent="WIyWlLk6GJQsqaUBKTNV-1" vertex="1"><mxGeometry x="282.5" y="560" width="60" height="30" as="geometry"/></mxCell><mxCell id="5" value="" style="edgeStyle=orthogonalEdgeStyle;rounded=0;orthogonalLoop=1;jettySize=auto;html=1;" edge="1" parent="WIyWlLk6GJQsqaUBKTNV-1" source="z_KAuhuDqd6TNWYJx3mP-9" target="4"><mxGeometry relative="1" as="geometry"/></mxCell><mxCell id="z_KAuhuDqd6TNWYJx3mP-9" value="Request rejected status updated in withdraw table" style="whiteSpace=wrap;html=1;rounded=1;shadow=0;strokeWidth=1;glass=0;" parent="WIyWlLk6GJQsqaUBKTNV-1" vertex="1"><mxGeometry x="450" y="620" width="120" height="50" as="geometry"/></mxCell><mxCell id="z_KAuhuDqd6TNWYJx3mP-10" value="" style="endArrow=classic;html=1;rounded=0;entryX=0.5;entryY=0;entryDx=0;entryDy=0;" parent="WIyWlLk6GJQsqaUBKTNV-1" target="z_KAuhuDqd6TNWYJx3mP-9" edge="1"><mxGeometry width="50" height="50" relative="1" as="geometry"><mxPoint x="425" y="540" as="sourcePoint"/><mxPoint x="475" y="490" as="targetPoint"/><Array as="points"><mxPoint x="510" y="540"/></Array></mxGeometry></mxCell><mxCell id="z_KAuhuDqd6TNWYJx3mP-11" value="Reject" style="text;html=1;strokeColor=none;fillColor=none;align=center;verticalAlign=middle;whiteSpace=wrap;rounded=0;" parent="WIyWlLk6GJQsqaUBKTNV-1" vertex="1"><mxGeometry x="450" y="570" width="60" height="30" as="geometry"/></mxCell><mxCell id="z_KAuhuDqd6TNWYJx3mP-15" value="&lt;span&gt;if balance is greater than 50 and no pending withdrawal request exist&lt;/span&gt;" style="rhombus;whiteSpace=wrap;html=1;" parent="WIyWlLk6GJQsqaUBKTNV-1" vertex="1"><mxGeometry x="300" y="160" width="170" height="140" as="geometry"/></mxCell><mxCell id="z_KAuhuDqd6TNWYJx3mP-16" value="" style="edgeStyle=orthogonalEdgeStyle;rounded=0;orthogonalLoop=1;jettySize=auto;html=1;entryX=0.5;entryY=0;entryDx=0;entryDy=0;endArrow=none;" parent="WIyWlLk6GJQsqaUBKTNV-1" source="us1KMaRaIffKch248EVU-10" target="z_KAuhuDqd6TNWYJx3mP-15" edge="1"><mxGeometry relative="1" as="geometry"><mxPoint x="385" y="140" as="sourcePoint"/><mxPoint x="385" y="260" as="targetPoint"/></mxGeometry></mxCell><mxCell id="z_KAuhuDqd6TNWYJx3mP-17" value="Yes" style="text;html=1;strokeColor=none;fillColor=none;align=center;verticalAlign=middle;whiteSpace=wrap;rounded=0;" parent="WIyWlLk6GJQsqaUBKTNV-1" vertex="1"><mxGeometry x="375" y="310" width="60" height="30" as="geometry"/></mxCell><mxCell id="z_KAuhuDqd6TNWYJx3mP-18" value="Sent to admin for approval" style="rounded=1;whiteSpace=wrap;html=1;" parent="WIyWlLk6GJQsqaUBKTNV-1" vertex="1"><mxGeometry x="325" y="310" width="120" height="60" as="geometry"/></mxCell><mxCell id="1" value="&lt;span style=&quot;font-family: &amp;#34;helvetica&amp;#34;&quot;&gt;Balance deducted from user table in balance field&lt;br&gt;&lt;/span&gt;" style="rounded=1;whiteSpace=wrap;html=1;" vertex="1" parent="WIyWlLk6GJQsqaUBKTNV-1"><mxGeometry x="325" y="395" width="120" height="60" as="geometry"/></mxCell><mxCell id="2" value="" style="edgeStyle=orthogonalEdgeStyle;rounded=0;orthogonalLoop=1;jettySize=auto;html=1;entryX=0.5;entryY=0;entryDx=0;entryDy=0;startArrow=none;endArrow=none;" edge="1" parent="WIyWlLk6GJQsqaUBKTNV-1" source="z_KAuhuDqd6TNWYJx3mP-15" target="1"><mxGeometry relative="1" as="geometry"><mxPoint x="385" y="500" as="targetPoint"/><mxPoint x="385" y="300" as="sourcePoint"/></mxGeometry></mxCell><mxCell id="4" value="Add amount to seller_balance ?&lt;br&gt;" style="whiteSpace=wrap;html=1;rounded=1;shadow=0;strokeWidth=1;glass=0;" vertex="1" parent="WIyWlLk6GJQsqaUBKTNV-1"><mxGeometry x="450" y="690" width="120" height="60" as="geometry"/></mxCell></root></mxGraphModel></diagram></mxfile>